<?xml version="1.0" encoding="UTF-8" standalone="no"?>
<!-- Created with Inkscape (http://www.inkscape.org/) -->

<svg
   width="210mm"
   height="297mm"
   viewBox="0 0 210 297"
   version="1.1"
   id="svg5"
   sodipodi:docname="box skila2.svg"
   inkscape:version="1.2.1 (9c6d41e410, 2022-07-14)"
   xmlns:inkscape="http://www.inkscape.org/namespaces/inkscape"
   xmlns:sodipodi="http://sodipodi.sourceforge.net/DTD/sodipodi-0.dtd"
   xmlns="http://www.w3.org/2000/svg"
   xmlns:svg="http://www.w3.org/2000/svg">
  <sodipodi:namedview
     id="namedview7"
     pagecolor="#ffffff"
     bordercolor="#999999"
     borderopacity="1"
     inkscape:showpageshadow="0"
     inkscape:pageopacity="0"
     inkscape:pagecheckerboard="0"
     inkscape:deskcolor="#d1d1d1"
     inkscape:document-units="mm"
     showgrid="true"
     inkscape:zoom="1.1893044"
     inkscape:cx="863.95039"
     inkscape:cy="670.98045"
     inkscape:window-width="2240"
     inkscape:window-height="1294"
     inkscape:window-x="-11"
     inkscape:window-y="-11"
     inkscape:window-maximized="1"
     inkscape:current-layer="layer1" />
  <defs
     id="defs2">
    <rect
       x="322.03698"
       y="759.26735"
       width="314.46953"
       height="140.41821"
       id="rect9276" />
  </defs>
  <g
     inkscape:label="Layer 1"
     inkscape:groupmode="layer"
     id="layer1">
    <g
       aria-label="Max "
       id="text10070"
       style="font-size:7.05556px;-inkscape-font-specification:sans-serif;text-align:center;text-anchor:middle;fill:#00ffff;stroke:#00ffff;stroke-width:0.899999;paint-order:fill markers stroke">
      <path
         d="m 166.26417,173.5258 h -0.68213 v -4.42006 l -1.42627,3.00757 h -0.40652 l -1.41593,-3.00757 v 4.42006 h -0.63735 v -5.12975 h 0.93018 l 1.3677,2.85599 1.32292,-2.85599 h 0.9474 z"
         style="stroke-width:0.9"
         id="path10072" />
      <path
         d="m 170.58088,173.5258 h -0.64423 v -0.40996 q -0.0861,0.0586 -0.23427,0.16536 -0.14469,0.10335 -0.2825,0.16537 -0.16192,0.0792 -0.37207,0.13091 -0.21015,0.0551 -0.49265,0.0551 -0.52021,0 -0.88194,-0.34451 -0.36174,-0.34451 -0.36174,-0.8785 0,-0.43753 0.18604,-0.70624 0.18948,-0.27217 0.53743,-0.4272 0.3514,-0.15503 0.84405,-0.21015 0.49265,-0.0551 1.05765,-0.0827 v -0.0999 q 0,-0.22048 -0.0792,-0.36518 -0.0758,-0.14469 -0.22049,-0.22737 -0.1378,-0.0792 -0.33072,-0.1068 -0.19293,-0.0276 -0.40308,-0.0276 -0.25494,0 -0.56844,0.0689 -0.31351,0.0655 -0.64768,0.19292 h -0.0345 v -0.65801 q 0.18948,-0.0517 0.54777,-0.11369 0.35829,-0.062 0.70624,-0.062 0.40653,0 0.70625,0.0689 0.30317,0.0655 0.52365,0.22738 0.21705,0.15847 0.33073,0.40997 0.11369,0.25149 0.11369,0.62356 z m -0.64423,-0.9474 v -1.07142 q -0.29628,0.0172 -0.69936,0.0517 -0.39963,0.0344 -0.63389,0.0999 -0.27906,0.0792 -0.45131,0.24805 -0.17226,0.16536 -0.17226,0.45819 0,0.33073 0.19982,0.49954 0.19981,0.16537 0.60978,0.16537 0.34107,0 0.62356,-0.13092 0.2825,-0.13435 0.52366,-0.32039 z"
         style="stroke-width:0.9"
         id="path10074" />
      <path
         d="m 175.15942,173.5258 h -0.81649 l -1.0921,-1.47794 -1.09898,1.47794 h -0.75448 l 1.50206,-1.91892 -1.48828,-1.92925 h 0.81649 l 1.0852,1.45383 1.08865,-1.45383 h 0.75793 l -1.5124,1.8948 z"
         style="stroke-width:0.9"
         id="path10076" />
    </g>
    <g
       id="panel3369">
      <path
         style="fill:none;stroke:#000000;stroke-width:1"
         d="M 68.4 188.9 L 86.15 188.9 L 86.15 185.8 L 101.35 185.8 L 101.35 188.9 L 119 188.9 L 119 185.8 L 134.2 185.8 L 134.2 188.9 L 151.85 188.9 L 151.85 185.8 L 167.05 185.8 L 167.05 188.9 L 184.8 188.9"
         id="path119" />
      <path
         style="fill:none;stroke:#000000;stroke-width:1"
         d="M 184.8 188.9 L 184.8 211.6 L 181.7 211.6 L 181.7 226.4 L 184.8 226.4 L 184.8 249.1"
         id="path121" />
      <path
         style="fill:none;stroke:#000000;stroke-width:1"
         d="M 184.8 249.1 L 167.05 249.1 L 167.05 252.2 L 151.85 252.2 L 151.85 249.1 L 134.2 249.1 L 134.2 252.2 L 119 252.2 L 119 249.1 L 101.35 249.1 L 101.35 252.2 L 86.15 252.2 L 86.15 249.1 L 68.4 249.1"
         id="path123" />
      <path
         style="fill:none;stroke:#000000;stroke-width:1"
         d="M 68.4 249.1 L 68.4 226.4 L 71.5 226.4 L 71.5 211.6 L 68.4 211.6 L 68.4 188.9"
         id="path125" />
    </g>
    <g
       id="panel6926">
      <path
         style="fill:none;stroke:#000000;stroke-width:1"
         d="M 4.1 71.5 L 26.6 71.5 L 26.6 68.4 L 41.8 68.4 L 41.8 71.5 L 64.3 71.5"
         id="path128" />
      <path
         style="fill:none;stroke:#000000;stroke-width:1"
         d="M 64.3 71.5 L 64.3 86.15 L 67.4 86.15 L 67.4 101.35 L 64.3 101.35 L 64.3 119 L 67.4 119 L 67.4 134.2 L 64.3 134.2 L 64.3 151.85 L 67.4 151.85 L 67.4 167.05 L 64.3 167.05 L 64.3 181.7"
         id="path130" />
      <path
         style="fill:none;stroke:#000000;stroke-width:1"
         d="M 64.3 181.7 L 41.8 181.7 L 41.8 184.8 L 26.6 184.8 L 26.6 181.7 L 4.1 181.7"
         id="path132" />
      <path
         style="fill:none;stroke:#000000;stroke-width:1"
         d="M 4.1 181.7 L 4.1 167.05 L 1 167.05 L 1 151.85 L 4.1 151.85 L 4.1 134.2 L 1 134.2 L 1 119 L 4.1 119 L 4.1 101.35 L 1 101.35 L 1 86.15 L 4.1 86.15 L 4.1 71.5"
         id="path134" />
    </g>
    <g
       id="panel2256">
      <path
         style="fill:none;stroke:#000000;stroke-width:1"
         d="M 68.4 68.4 L 86.35 68.4 L 86.35 71.5 L 101.15 71.5 L 101.15 68.4 L 119.2 68.4 L 119.2 71.5 L 134 71.5 L 134 68.4 L 152.05 68.4 L 152.05 71.5 L 166.85 71.5 L 166.85 68.4 L 184.8 68.4"
         id="path137" />
      <path
         style="fill:none;stroke:#000000;stroke-width:1"
         d="M 184.8 68.4 L 184.8 86.35 L 181.7 86.35 L 181.7 101.15 L 184.8 101.15 L 184.8 119.2 L 181.7 119.2 L 181.7 134 L 184.8 134 L 184.8 152.05 L 181.7 152.05 L 181.7 166.85 L 184.8 166.85 L 184.8 184.8"
         id="path139" />
      <path
         style="fill:none;stroke:#000000;stroke-width:1"
         d="M 184.8 184.8 L 166.85 184.8 L 166.85 181.7 L 152.05 181.7 L 152.05 184.8 L 134 184.8 L 134 181.7 L 119.2 181.7 L 119.2 184.8 L 101.15 184.8 L 101.15 181.7 L 86.35 181.7 L 86.35 184.8 L 68.4 184.8"
         id="path141" />
      <path
         style="fill:none;stroke:#000000;stroke-width:1"
         d="M 68.4 184.8 L 68.4 166.85 L 71.5 166.85 L 71.5 152.05 L 68.4 152.05 L 68.4 134 L 71.5 134 L 71.5 119.2 L 68.4 119.2 L 68.4 101.15 L 71.5 101.15 L 71.5 86.35 L 68.4 86.35 L 68.4 68.4"
         id="path143" />
    </g>
    <g
       id="panel1471">
      <path
         style="fill:none;stroke:#000000;stroke-width:1"
         d="M 188.9 71.5 L 211.4 71.5 L 211.4 68.4 L 226.6 68.4 L 226.6 71.5 L 249.1 71.5"
         id="path146" />
      <path
         style="fill:none;stroke:#000000;stroke-width:1"
         d="M 249.1 71.5 L 249.1 86.15 L 252.2 86.15 L 252.2 101.35 L 249.1 101.35 L 249.1 119 L 252.2 119 L 252.2 134.2 L 249.1 134.2 L 249.1 151.85 L 252.2 151.85 L 252.2 167.05 L 249.1 167.05 L 249.1 181.7"
         id="path148" />
      <path
         style="fill:none;stroke:#000000;stroke-width:1"
         d="M 249.1 181.7 L 226.6 181.7 L 226.6 184.8 L 211.4 184.8 L 211.4 181.7 L 188.9 181.7"
         id="path150" />
      <path
         style="fill:none;stroke:#000000;stroke-width:1"
         d="M 188.9 181.7 L 188.9 167.05 L 185.8 167.05 L 185.8 151.85 L 188.9 151.85 L 188.9 134.2 L 185.8 134.2 L 185.8 119 L 188.9 119 L 188.9 101.35 L 185.8 101.35 L 185.8 86.15 L 188.9 86.15 L 188.9 71.5"
         id="path152" />
    </g>
    <g
       id="panel1808">
      <path
         style="fill:none;stroke:#000000;stroke-width:1"
         d="M 253.2 68.4 L 271.15 68.4 L 271.15 71.5 L 285.95 71.5 L 285.95 68.4 L 304 68.4 L 304 71.5 L 318.8 71.5 L 318.8 68.4 L 336.85 68.4 L 336.85 71.5 L 351.65 71.5 L 351.65 68.4 L 369.6 68.4"
         id="path155" />
      <path
         style="fill:none;stroke:#000000;stroke-width:1"
         d="m 369.6,68.4 v 17.95 h -3.1 v 14.8 h 3.1 c 3.84849,6.20603 4.1142,12.26266 0,18.05 h -3.1 V 134 h 3.1 c 2.71971,4.85699 4.73306,9.3475 0,18.05 h -3.1 v 14.8 h 3.1 v 17.95"
         id="path157"
         sodipodi:nodetypes="cccccccccccccc" />
      <path
         style="fill:none;stroke:#000000;stroke-width:1"
         d="M 369.6 184.8 L 351.65 184.8 L 351.65 181.7 L 336.85 181.7 L 336.85 184.8 L 318.8 184.8 L 318.8 181.7 L 304 181.7 L 304 184.8 L 285.95 184.8 L 285.95 181.7 L 271.15 181.7 L 271.15 184.8 L 253.2 184.8"
         id="path159" />
      <path
         style="fill:none;stroke:#000000;stroke-width:1"
         d="M 253.2 184.8 L 253.2 166.85 L 256.3 166.85 L 256.3 152.05 L 253.2 152.05 L 253.2 134 L 256.3 134 L 256.3 119.2 L 253.2 119.2 L 253.2 101.15 L 256.3 101.15 L 256.3 86.35 L 253.2 86.35 L 253.2 68.4"
         id="path161" />
    </g>
    <g
       id="panel1019">
      <path
         style="fill:none;stroke:#000000;stroke-width:1"
         d="M 68.4 4.1 L 86.15 4.1 L 86.15 1 L 101.35 1 L 101.35 4.1 L 119 4.1 L 119 1 L 134.2 1 L 134.2 4.1 L 151.85 4.1 L 151.85 1 L 167.05 1 L 167.05 4.1 L 184.8 4.1"
         id="path164" />
      <path
         style="fill:none;stroke:#000000;stroke-width:1"
         d="M 184.8 4.1 L 184.8 26.8 L 181.7 26.8 L 181.7 41.6 L 184.8 41.6 L 184.8 64.3"
         id="path166" />
      <path
         style="fill:none;stroke:#000000;stroke-width:1"
         d="M 184.8 64.3 L 167.05 64.3 L 167.05 67.4 L 151.85 67.4 L 151.85 64.3 L 134.2 64.3 L 134.2 67.4 L 119 67.4 L 119 64.3 L 101.35 64.3 L 101.35 67.4 L 86.15 67.4 L 86.15 64.3 L 68.4 64.3"
         id="path168" />
      <path
         style="fill:none;stroke:#000000;stroke-width:1"
         d="M 68.4 64.3 L 68.4 41.6 L 71.5 41.6 L 71.5 26.8 L 68.4 26.8 L 68.4 4.1"
         id="path170" />
    </g>
    <path
       id="path257"
       style="fill:none;stroke:#000000;stroke-width:0.304254;paint-order:fill markers stroke"
       d="m 286.03524,87.284245 a 12.345612,12.345626 0 0 1 14.529,9.665502 12.345612,12.345626 0 0 1 -9.65049,14.538993 12.345612,12.345626 0 0 1 -14.54892,-9.6355 12.345612,12.345626 0 0 1 9.62046,-14.558874" />
    <path
       id="path3273"
       style="fill:none;stroke:#000000;stroke-width:0.304254;paint-order:fill markers stroke"
       d="m 331.34032,87.284245 a 12.345612,12.345626 0 0 1 14.52901,9.665502 12.345612,12.345626 0 0 1 -9.65049,14.538993 12.345612,12.345626 0 0 1 -14.54893,-9.6355 12.345612,12.345626 0 0 1 9.62047,-14.558874" />
    <path
       id="path3275"
       style="fill:none;stroke:#000000;stroke-width:0.304254;paint-order:fill markers stroke"
       d="m 286.03524,140.61211 a 12.345612,12.345626 0 0 1 14.529,9.6655 12.345612,12.345626 0 0 1 -9.65049,14.53899 12.345612,12.345626 0 0 1 -14.54892,-9.63549 12.345612,12.345626 0 0 1 9.62046,-14.55888" />
    <path
       id="path3277"
       style="fill:none;stroke:#000000;stroke-width:0.304254;paint-order:fill markers stroke"
       d="m 331.34032,140.61211 a 12.345612,12.345626 0 0 1 14.52901,9.6655 12.345612,12.345626 0 0 1 -9.65049,14.53899 12.345612,12.345626 0 0 1 -14.54893,-9.63549 12.345612,12.345626 0 0 1 9.62047,-14.55888" />
    <path
       id="rect3279"
       style="fill:none;stroke:#000000;stroke-width:0.282348;paint-order:fill markers stroke"
       d="m 79.00317,41.992767 h 19.63221 c 0.02367,0 0.04272,0.01905 0.04272,0.04272 v 12.632211 c 0,0.02367 -0.01905,0.04272 -0.04272,0.04272 H 79.00317 c -0.02367,0 -0.04272,-0.01905 -0.04272,-0.04272 V 42.035488 c 0,-0.02367 0.01905,-0.04272 0.04272,-0.04272 z" />
    <path
       id="path4007"
       style="fill:none;stroke:#000000;stroke-width:0.289782;paint-order:fill markers stroke"
       d="m 144.33958,40.711997 a 1.3549812,1.3550051 0 0 1 1.59462,1.060845 1.3549812,1.3550051 0 0 1 -1.05918,1.59574 1.3549812,1.3550051 0 0 1 -1.59681,-1.057552 1.3549812,1.3550051 0 0 1 1.05589,-1.597923" />
    <path
       id="path4009"
       style="fill:none;stroke:#000000;stroke-width:0.289782;paint-order:fill markers stroke"
       d="m 144.33958,45.431277 a 1.3549812,1.3550051 0 0 1 1.59462,1.060846 1.3549812,1.3550051 0 0 1 -1.05918,1.595739 1.3549812,1.3550051 0 0 1 -1.59681,-1.057552 1.3549812,1.3550051 0 0 1 1.05589,-1.597922" />
    <path
       id="path4011"
       style="fill:none;stroke:#000000;stroke-width:0.289782;paint-order:fill markers stroke"
       d="m 144.33958,50.209548 a 1.3549812,1.3550051 0 0 1 1.59462,1.060845 1.3549812,1.3550051 0 0 1 -1.05918,1.59574 1.3549812,1.3550051 0 0 1 -1.59681,-1.057552 1.3549812,1.3550051 0 0 1 1.05589,-1.597923" />
    <path
       id="path4013"
       style="fill:none;stroke:#000000;stroke-width:0.289782;paint-order:fill markers stroke"
       d="m 144.33958,54.928828 a 1.3549812,1.3550051 0 0 1 1.59462,1.060846 1.3549812,1.3550051 0 0 1 -1.05918,1.595739 1.3549812,1.3550051 0 0 1 -1.59681,-1.057552 1.3549812,1.3550051 0 0 1 1.05589,-1.597922" />
    <path
       id="path4015"
       style="fill:none;stroke:#000000;stroke-width:0.289782;paint-order:fill markers stroke"
       d="m 148.58694,40.711997 a 1.3549812,1.3550051 0 0 1 1.59462,1.060845 1.3549812,1.3550051 0 0 1 -1.05918,1.59574 1.3549812,1.3550051 0 0 1 -1.59681,-1.057552 1.3549812,1.3550051 0 0 1 1.05589,-1.597923" />
    <path
       id="path4017"
       style="fill:none;stroke:#000000;stroke-width:0.289782;paint-order:fill markers stroke"
       d="m 148.58694,45.431277 a 1.3549812,1.3550051 0 0 1 1.59462,1.060846 1.3549812,1.3550051 0 0 1 -1.05918,1.595739 1.3549812,1.3550051 0 0 1 -1.59681,-1.057552 1.3549812,1.3550051 0 0 1 1.05589,-1.597922" />
    <path
       id="path4019"
       style="fill:none;stroke:#000000;stroke-width:0.289782;paint-order:fill markers stroke"
       d="m 148.58694,50.209548 a 1.3549812,1.3550051 0 0 1 1.59462,1.060845 1.3549812,1.3550051 0 0 1 -1.05918,1.59574 1.3549812,1.3550051 0 0 1 -1.59681,-1.057552 1.3549812,1.3550051 0 0 1 1.05589,-1.597923" />
    <path
       id="path4021"
       style="fill:none;stroke:#000000;stroke-width:0.289782;paint-order:fill markers stroke"
       d="m 148.58694,54.928828 a 1.3549812,1.3550051 0 0 1 1.59462,1.060846 1.3549812,1.3550051 0 0 1 -1.05918,1.595739 1.3549812,1.3550051 0 0 1 -1.59681,-1.057552 1.3549812,1.3550051 0 0 1 1.05589,-1.597922" />
    <path
       id="path4023"
       style="fill:none;stroke:#000000;stroke-width:0.289782;paint-order:fill markers stroke"
       d="m 152.95227,40.711997 a 1.3549812,1.3550051 0 0 1 1.59461,1.060845 1.3549812,1.3550051 0 0 1 -1.05918,1.59574 1.3549812,1.3550051 0 0 1 -1.5968,-1.057552 1.3549812,1.3550051 0 0 1 1.05588,-1.597923" />
    <path
       id="path4025"
       style="fill:none;stroke:#000000;stroke-width:0.289782;paint-order:fill markers stroke"
       d="m 152.95227,45.431277 a 1.3549812,1.3550051 0 0 1 1.59461,1.060846 1.3549812,1.3550051 0 0 1 -1.05918,1.595739 1.3549812,1.3550051 0 0 1 -1.5968,-1.057552 1.3549812,1.3550051 0 0 1 1.05588,-1.597922" />
    <path
       id="path4027"
       style="fill:none;stroke:#000000;stroke-width:0.289782;paint-order:fill markers stroke"
       d="m 152.95227,50.209548 a 1.3549812,1.3550051 0 0 1 1.59461,1.060845 1.3549812,1.3550051 0 0 1 -1.05918,1.59574 1.3549812,1.3550051 0 0 1 -1.5968,-1.057552 1.3549812,1.3550051 0 0 1 1.05588,-1.597923" />
    <path
       id="path4029"
       style="fill:none;stroke:#000000;stroke-width:0.289782;paint-order:fill markers stroke"
       d="m 152.95227,54.928828 a 1.3549812,1.3550051 0 0 1 1.59461,1.060846 1.3549812,1.3550051 0 0 1 -1.05918,1.595739 1.3549812,1.3550051 0 0 1 -1.5968,-1.057552 1.3549812,1.3550051 0 0 1 1.05588,-1.597922" />
    <path
       id="path4031"
       style="fill:none;stroke:#000000;stroke-width:0.289782;paint-order:fill markers stroke"
       d="m 157.19963,40.711997 a 1.3549812,1.3550051 0 0 1 1.59461,1.060845 1.3549812,1.3550051 0 0 1 -1.05918,1.59574 1.3549812,1.3550051 0 0 1 -1.5968,-1.057552 1.3549812,1.3550051 0 0 1 1.05588,-1.597923" />
    <path
       id="path4033"
       style="fill:none;stroke:#000000;stroke-width:0.289782;paint-order:fill markers stroke"
       d="m 157.19963,45.431277 a 1.3549812,1.3550051 0 0 1 1.59461,1.060846 1.3549812,1.3550051 0 0 1 -1.05918,1.595739 1.3549812,1.3550051 0 0 1 -1.5968,-1.057552 1.3549812,1.3550051 0 0 1 1.05588,-1.597922" />
    <path
       id="path4035"
       style="fill:none;stroke:#000000;stroke-width:0.289782;paint-order:fill markers stroke"
       d="m 157.19963,50.209548 a 1.3549812,1.3550051 0 0 1 1.59461,1.060845 1.3549812,1.3550051 0 0 1 -1.05918,1.59574 1.3549812,1.3550051 0 0 1 -1.5968,-1.057552 1.3549812,1.3550051 0 0 1 1.05588,-1.597923" />
    <path
       id="path4037"
       style="fill:none;stroke:#000000;stroke-width:0.289782;paint-order:fill markers stroke"
       d="m 157.19963,54.928828 a 1.3549812,1.3550051 0 0 1 1.59461,1.060846 1.3549812,1.3550051 0 0 1 -1.05918,1.595739 1.3549812,1.3550051 0 0 1 -1.5968,-1.057552 1.3549812,1.3550051 0 0 1 1.05588,-1.597922" />
    <path
       id="path4039"
       style="fill:none;stroke:#000000;stroke-width:0.289782;paint-order:fill markers stroke"
       d="m 161.21101,40.711997 a 1.3549812,1.3550051 0 0 1 1.59462,1.060845 1.3549812,1.3550051 0 0 1 -1.05918,1.59574 1.3549812,1.3550051 0 0 1 -1.59681,-1.057552 1.3549812,1.3550051 0 0 1 1.05589,-1.597923" />
    <path
       id="path4041"
       style="fill:none;stroke:#000000;stroke-width:0.289782;paint-order:fill markers stroke"
       d="m 161.21101,45.431277 a 1.3549812,1.3550051 0 0 1 1.59462,1.060846 1.3549812,1.3550051 0 0 1 -1.05918,1.595739 1.3549812,1.3550051 0 0 1 -1.59681,-1.057552 1.3549812,1.3550051 0 0 1 1.05589,-1.597922" />
    <path
       id="path4043"
       style="fill:none;stroke:#000000;stroke-width:0.289782;paint-order:fill markers stroke"
       d="m 161.21101,50.209548 a 1.3549812,1.3550051 0 0 1 1.59462,1.060845 1.3549812,1.3550051 0 0 1 -1.05918,1.59574 1.3549812,1.3550051 0 0 1 -1.59681,-1.057552 1.3549812,1.3550051 0 0 1 1.05589,-1.597923" />
    <path
       id="path4045"
       style="fill:none;stroke:#000000;stroke-width:0.289782;paint-order:fill markers stroke"
       d="m 161.21101,54.928828 a 1.3549812,1.3550051 0 0 1 1.59462,1.060846 1.3549812,1.3550051 0 0 1 -1.05918,1.595739 1.3549812,1.3550051 0 0 1 -1.59681,-1.057552 1.3549812,1.3550051 0 0 1 1.05589,-1.597922" />
    <path
       id="path4047"
       style="fill:none;stroke:#000000;stroke-width:0.289782;paint-order:fill markers stroke"
       d="m 165.45837,40.711997 a 1.3549812,1.3550051 0 0 1 1.59462,1.060845 1.3549812,1.3550051 0 0 1 -1.05918,1.59574 1.3549812,1.3550051 0 0 1 -1.59681,-1.057552 1.3549812,1.3550051 0 0 1 1.05589,-1.597923" />
    <path
       id="path4049"
       style="fill:none;stroke:#000000;stroke-width:0.289782;paint-order:fill markers stroke"
       d="m 165.45837,45.431277 a 1.3549812,1.3550051 0 0 1 1.59462,1.060846 1.3549812,1.3550051 0 0 1 -1.05918,1.595739 1.3549812,1.3550051 0 0 1 -1.59681,-1.057552 1.3549812,1.3550051 0 0 1 1.05589,-1.597922" />
    <path
       id="path4051"
       style="fill:none;stroke:#000000;stroke-width:0.289782;paint-order:fill markers stroke"
       d="m 165.45837,50.209548 a 1.3549812,1.3550051 0 0 1 1.59462,1.060845 1.3549812,1.3550051 0 0 1 -1.05918,1.59574 1.3549812,1.3550051 0 0 1 -1.59681,-1.057552 1.3549812,1.3550051 0 0 1 1.05589,-1.597923" />
    <path
       id="path4053"
       style="fill:none;stroke:#000000;stroke-width:0.289782;paint-order:fill markers stroke"
       d="m 165.45837,54.928828 a 1.3549812,1.3550051 0 0 1 1.59462,1.060846 1.3549812,1.3550051 0 0 1 -1.05918,1.595739 1.3549812,1.3550051 0 0 1 -1.59681,-1.057552 1.3549812,1.3550051 0 0 1 1.05589,-1.597922" />
    <path
       id="path4055"
       style="fill:none;stroke:#000000;stroke-width:0.289782;paint-order:fill markers stroke"
       d="m 169.82369,40.711997 a 1.3549812,1.3550051 0 0 1 1.59462,1.060845 1.3549812,1.3550051 0 0 1 -1.05918,1.59574 1.3549812,1.3550051 0 0 1 -1.5968,-1.057552 1.3549812,1.3550051 0 0 1 1.05588,-1.597923" />
    <path
       id="path4057"
       style="fill:none;stroke:#000000;stroke-width:0.289782;paint-order:fill markers stroke"
       d="m 169.82369,45.431277 a 1.3549812,1.3550051 0 0 1 1.59462,1.060846 1.3549812,1.3550051 0 0 1 -1.05918,1.595739 1.3549812,1.3550051 0 0 1 -1.5968,-1.057552 1.3549812,1.3550051 0 0 1 1.05588,-1.597922" />
    <path
       id="path4059"
       style="fill:none;stroke:#000000;stroke-width:0.289782;paint-order:fill markers stroke"
       d="m 169.82369,50.209548 a 1.3549812,1.3550051 0 0 1 1.59462,1.060845 1.3549812,1.3550051 0 0 1 -1.05918,1.59574 1.3549812,1.3550051 0 0 1 -1.5968,-1.057552 1.3549812,1.3550051 0 0 1 1.05588,-1.597923" />
    <path
       id="path4061"
       style="fill:none;stroke:#000000;stroke-width:0.289782;paint-order:fill markers stroke"
       d="m 169.82369,54.928828 a 1.3549812,1.3550051 0 0 1 1.59462,1.060846 1.3549812,1.3550051 0 0 1 -1.05918,1.595739 1.3549812,1.3550051 0 0 1 -1.5968,-1.057552 1.3549812,1.3550051 0 0 1 1.05588,-1.597922" />
    <path
       id="path4063"
       style="fill:none;stroke:#000000;stroke-width:0.289782;paint-order:fill markers stroke"
       d="m 174.07105,40.711997 a 1.3549812,1.3550051 0 0 1 1.59462,1.060845 1.3549812,1.3550051 0 0 1 -1.05918,1.59574 1.3549812,1.3550051 0 0 1 -1.5968,-1.057552 1.3549812,1.3550051 0 0 1 1.05588,-1.597923" />
    <path
       id="path4065"
       style="fill:none;stroke:#000000;stroke-width:0.289782;paint-order:fill markers stroke"
       d="m 174.07105,45.431277 a 1.3549812,1.3550051 0 0 1 1.59462,1.060846 1.3549812,1.3550051 0 0 1 -1.05918,1.595739 1.3549812,1.3550051 0 0 1 -1.5968,-1.057552 1.3549812,1.3550051 0 0 1 1.05588,-1.597922" />
    <path
       id="path4067"
       style="fill:none;stroke:#000000;stroke-width:0.289782;paint-order:fill markers stroke"
       d="m 174.07105,50.209548 a 1.3549812,1.3550051 0 0 1 1.59462,1.060845 1.3549812,1.3550051 0 0 1 -1.05918,1.59574 1.3549812,1.3550051 0 0 1 -1.5968,-1.057552 1.3549812,1.3550051 0 0 1 1.05588,-1.597923" />
    <path
       id="path4069"
       style="fill:none;stroke:#000000;stroke-width:0.289782;paint-order:fill markers stroke"
       d="m 174.07105,54.928828 a 1.3549812,1.3550051 0 0 1 1.59462,1.060846 1.3549812,1.3550051 0 0 1 -1.05918,1.595739 1.3549812,1.3550051 0 0 1 -1.5968,-1.057552 1.3549812,1.3550051 0 0 1 1.05588,-1.597922" />
    <path
       id="rect8476"
       style="fill:none;stroke:#00ffff;stroke-width:0.9;paint-order:fill markers stroke"
       d="m 201.82206,78.086609 h 33.95232 c 3.47461,0 6.27185,2.797244 6.27185,6.271848 v 83.785373 c 0,3.47461 -2.79724,6.27185 -6.27185,6.27185 h -33.95232 c -3.4746,0 -6.27184,-2.79724 -6.27184,-6.27185 V 84.358457 c 0,-3.474604 2.79724,-6.271848 6.27184,-6.271848 z" />
    <path
       id="rect8482"
       style="fill:none;stroke:#00ffff;stroke-width:0.9;paint-order:fill markers stroke"
       d="m 206.44369,91.199036 h 24.70906 c 2.52867,0 4.56438,2.035716 4.56438,4.564386 v 60.975448 c 0,2.52867 -2.03571,4.56438 -4.56438,4.56438 h -24.70906 c -2.52867,0 -4.56439,-2.03571 -4.56439,-4.56438 V 95.763422 c 0,-2.52867 2.03572,-4.564386 4.56439,-4.564386 z" />
    <path
       id="rect8484"
       style="fill:none;stroke:#00ffff;stroke-width:0.9;paint-order:fill markers stroke"
       d="m 211.22468,104.76361 h 15.14707 c 1.55012,0 2.79804,1.24793 2.79804,2.79805 v 37.37897 c 0,1.55012 -1.24792,2.79804 -2.79804,2.79804 h -15.14707 c -1.55012,0 -2.79804,-1.24792 -2.79804,-2.79804 v -37.37897 c 0,-1.55012 1.24792,-2.79805 2.79804,-2.79805 z" />
    <path
       id="rect8486"
       style="fill:none;stroke:#00ffff;stroke-width:0.9;paint-order:fill markers stroke"
       d="m 215.52758,116.97173 h 6.54128 c 0.66942,0 1.20834,0.53892 1.20834,1.20834 v 16.14215 c 0,0.66942 -0.53892,1.20834 -1.20834,1.20834 h -6.54128 c -0.66942,0 -1.20834,-0.53892 -1.20834,-1.20834 v -16.14215 c 0,-0.66942 0.53892,-1.20834 1.20834,-1.20834 z" />
    <path
       id="rect8488"
       style="fill:none;stroke:#00ffff;stroke-width:0.9;paint-order:fill markers stroke"
       d="m 17.14092,78.086609 h 33.952317 c 3.474604,0 6.271849,2.797244 6.271849,6.271848 v 83.785373 c 0,3.47461 -2.797245,6.27185 -6.271849,6.27185 H 17.14092 c -3.474604,0 -6.271848,-2.79724 -6.271848,-6.27185 V 84.358457 c 0,-3.474604 2.797244,-6.271848 6.271848,-6.271848 z" />
    <path
       id="rect8490"
       style="fill:none;stroke:#00ffff;stroke-width:0.9;paint-order:fill markers stroke"
       d="m 21.762544,91.199036 h 24.709058 c 2.52867,0 4.564386,2.035716 4.564386,4.564386 v 60.975448 c 0,2.52867 -2.035716,4.56438 -4.564386,4.56438 H 21.762544 c -2.52867,0 -4.564386,-2.03571 -4.564386,-4.56438 V 95.763422 c 0,-2.52867 2.035716,-4.564386 4.564386,-4.564386 z" />
    <path
       id="rect8492"
       style="fill:none;stroke:#00ffff;stroke-width:0.9;paint-order:fill markers stroke"
       d="m 26.543536,104.76361 h 15.147068 c 1.550117,0 2.798045,1.24793 2.798045,2.79805 v 37.37897 c 0,1.55012 -1.247928,2.79804 -2.798045,2.79804 H 26.543536 c -1.550117,0 -2.798045,-1.24792 -2.798045,-2.79804 v -37.37897 c 0,-1.55012 1.247928,-2.79805 2.798045,-2.79805 z" />
    <path
       id="rect8494"
       style="fill:none;stroke:#00ffff;stroke-width:0.9;paint-order:fill markers stroke"
       d="m 30.846438,116.97173 h 6.541277 c 0.669419,0 1.208338,0.53892 1.208338,1.20834 v 16.14215 c 0,0.66942 -0.538919,1.20834 -1.208338,1.20834 h -6.541277 c -0.669419,0 -1.208338,-0.53892 -1.208338,-1.20834 v -16.14215 c 0,-0.66942 0.538919,-1.20834 1.208338,-1.20834 z" />
    <g
       aria-label="Simon
Says
"
       transform="scale(0.26458333)"
       id="text9274"
       style="font-size:53.3333px;font-family:Bahnschrift;-inkscape-font-specification:Bahnschrift;white-space:pre;shape-inside:url(#rect9276);fill:#00ffff;stroke:#00ffff;stroke-width:3.40157;paint-order:fill markers stroke">
      <path
         d="m 428.11266,797.21026 q 0,2.26563 -1.06771,4.47917 -1.04166,2.21354 -2.9427,3.75 -2.08334,1.66666 -4.86979,2.60416 -2.76042,0.9375 -6.66667,0.9375 -4.1927,0 -7.55207,-0.78125 -3.33334,-0.78125 -6.79687,-2.31771 v -6.45833 h 0.36458 q 2.9427,2.44792 6.79687,3.77604 3.85416,1.32813 7.23958,1.32813 4.79166,0 7.44791,-1.79688 2.68229,-1.79687 2.68229,-4.79166 0,-2.57812 -1.27604,-3.80208 -1.25,-1.22396 -3.82812,-1.90104 -1.95313,-0.52083 -4.24479,-0.85938 -2.26563,-0.33854 -4.81771,-0.85937 -5.15624,-1.09375 -7.65624,-3.72396 -2.47396,-2.65625 -2.47396,-6.90103 0,-4.86979 4.11458,-7.96875 4.11458,-3.125 10.4427,-3.125 4.08854,0 7.5,0.78125 3.41145,0.78125 6.04166,1.92708 v 6.09375 h -0.36458 q -2.21354,-1.875 -5.83333,-3.09896 -3.59375,-1.25 -7.36979,-1.25 -4.14062,0 -6.66666,1.71875 -2.5,1.71875 -2.5,4.42708 0,2.42188 1.25,3.80209 1.25,1.3802 4.40104,2.10937 1.66666,0.36458 4.73958,0.88542 3.07291,0.52083 5.20833,1.0677 4.32291,1.14584 6.51041,3.46354 2.1875,2.31771 2.1875,6.48437 z"
         style="font-family:sans-serif;-inkscape-font-specification:sans-serif;text-align:center;text-anchor:middle"
         id="path10124" />
      <path
         d="m 441.2637,774.31965 h -5.52083 v -5.07812 h 5.52083 z m -0.3125,33.95832 h -4.89583 v -29.08853 h 4.89583 z"
         style="font-family:sans-serif;-inkscape-font-specification:sans-serif;text-align:center;text-anchor:middle"
         id="path10126" />
      <path
         d="m 493.08658,808.27797 h -4.89583 v -16.56249 q 0,-1.875 -0.18229,-3.61979 -0.15625,-1.74479 -0.70313,-2.78646 -0.59895,-1.11979 -1.71875,-1.69271 -1.11979,-0.57291 -3.22916,-0.57291 -2.05729,0 -4.11458,1.04166 -2.05729,1.01563 -4.11458,2.60417 0.0781,0.59895 0.13021,1.40625 0.0521,0.78125 0.0521,1.5625 v 18.61978 h -4.89583 v -16.56249 q 0,-1.92709 -0.18229,-3.64584 -0.15625,-1.74479 -0.70313,-2.78645 -0.59895,-1.11979 -1.71875,-1.66667 -1.11979,-0.57291 -3.22916,-0.57291 -2.00521,0 -4.03646,0.98958 -2.0052,0.98958 -4.01041,2.52604 v 21.71874 h -4.89583 v -29.08853 h 4.89583 v 3.22917 q 2.29166,-1.90104 4.55729,-2.96875 2.29166,-1.06771 4.86979,-1.06771 2.96875,0 5.02604,1.25 2.08333,1.25 3.09895,3.46354 2.96875,-2.5 5.41667,-3.59375 2.44791,-1.11979 5.23437,-1.11979 4.79166,0 7.05728,2.91666 2.29167,2.89063 2.29167,8.09896 z"
         style="font-family:sans-serif;-inkscape-font-specification:sans-serif;text-align:center;text-anchor:middle"
         id="path10128" />
      <path
         d="m 527.30531,793.74672 q 0,7.10938 -3.64583,11.22396 -3.64583,4.11458 -9.76562,4.11458 -6.17187,0 -9.8177,-4.11458 -3.61979,-4.11458 -3.61979,-11.22396 0,-7.10937 3.61979,-11.22395 3.64583,-4.14062 9.8177,-4.14062 6.11979,0 9.76562,4.14062 3.64583,4.11458 3.64583,11.22395 z m -5.05208,0 q 0,-5.65103 -2.21354,-8.38541 -2.21354,-2.76041 -6.14583,-2.76041 -3.98437,0 -6.19791,2.76041 -2.1875,2.73438 -2.1875,8.38541 0,5.46875 2.21354,8.30729 2.21354,2.8125 6.17187,2.8125 3.90625,0 6.11979,-2.78646 2.23958,-2.8125 2.23958,-8.33333 z"
         style="font-family:sans-serif;-inkscape-font-specification:sans-serif;text-align:center;text-anchor:middle"
         id="path10130" />
      <path
         d="m 559.20634,808.27797 h -4.89583 v -16.56249 q 0,-2.00521 -0.23437,-3.75 -0.23438,-1.77083 -0.85938,-2.76042 -0.65104,-1.09375 -1.875,-1.61458 -1.22395,-0.54687 -3.17708,-0.54687 -2.00521,0 -4.1927,0.98958 -2.1875,0.98958 -4.19271,2.52604 v 21.71874 h -4.89583 v -29.08853 h 4.89583 v 3.22917 q 2.29167,-1.90104 4.73958,-2.96875 2.44792,-1.06771 5.02604,-1.06771 4.71354,0 7.1875,2.83854 2.47395,2.83854 2.47395,8.17708 z"
         style="font-family:sans-serif;-inkscape-font-specification:sans-serif;text-align:center;text-anchor:middle"
         id="path10132" />
      <path
         d="m 448.94598,864.22967 q 0,2.26563 -1.06771,4.47917 -1.04166,2.21354 -2.9427,3.74999 -2.08333,1.66667 -4.86979,2.60417 -2.76042,0.9375 -6.66666,0.9375 -4.19271,0 -7.55208,-0.78125 -3.33333,-0.78125 -6.79687,-2.31771 v -6.45833 h 0.36458 q 2.94271,2.44792 6.79687,3.77604 3.85416,1.32813 7.23958,1.32813 4.79166,0 7.44791,-1.79688 2.68229,-1.79687 2.68229,-4.79166 0,-2.57812 -1.27604,-3.80208 -1.25,-1.22396 -3.82812,-1.90104 -1.95313,-0.52084 -4.24479,-0.85938 -2.26562,-0.33854 -4.81771,-0.85937 -5.15624,-1.09375 -7.65624,-3.72396 -2.47396,-2.65625 -2.47396,-6.90103 0,-4.86979 4.11458,-7.96875 4.11458,-3.125 10.4427,-3.125 4.08854,0 7.5,0.78125 3.41146,0.78125 6.04166,1.92708 v 6.09375 h -0.36458 q -2.21354,-1.875 -5.83333,-3.09896 -3.59375,-1.25 -7.36979,-1.25 -4.14062,0 -6.66666,1.71875 -2.5,1.71875 -2.5,4.42708 0,2.42188 1.25,3.80208 1.25,1.38021 4.40104,2.10938 1.66667,0.36458 4.73958,0.88541 3.07291,0.52084 5.20833,1.06771 4.32291,1.14583 6.51041,3.46354 2.1875,2.31771 2.1875,6.48437 z"
         style="font-family:sans-serif;-inkscape-font-specification:sans-serif;text-align:center;text-anchor:middle"
         id="path10134" />
      <path
         d="m 479.44076,875.29737 h -4.86979 v -3.09895 q -0.65104,0.44271 -1.77083,1.25 -1.09375,0.78125 -2.13542,1.25 -1.22396,0.59895 -2.8125,0.98958 -1.58854,0.41667 -3.72395,0.41667 -3.93229,0 -6.66667,-2.60417 -2.73437,-2.60416 -2.73437,-6.64062 0,-3.30729 1.40625,-5.33854 1.43229,-2.05729 4.0625,-3.22916 2.65624,-1.17188 6.3802,-1.58854 3.72396,-0.41667 7.99479,-0.625 v -0.75521 q 0,-1.66667 -0.59896,-2.76042 -0.57292,-1.09375 -1.66667,-1.71875 -1.04166,-0.59895 -2.49999,-0.80729 -1.45834,-0.20833 -3.04688,-0.20833 -1.92708,0 -4.29687,0.52083 -2.36979,0.49479 -4.89583,1.45834 h -0.26042 v -4.97396 q 1.43229,-0.39062 4.14063,-0.85937 2.70833,-0.46875 5.33853,-0.46875 3.07292,0 5.33854,0.52083 2.29167,0.49479 3.95833,1.71875 1.64063,1.19791 2.5,3.09895 0.85938,1.90104 0.85938,4.71354 z m -4.86979,-7.16145 v -8.09895 q -2.23958,0.13021 -5.28646,0.39062 -3.02083,0.26042 -4.79166,0.75521 -2.10938,0.59896 -3.41146,1.875 -1.30208,1.25 -1.30208,3.46354 0,2.5 1.51042,3.77604 1.51041,1.25 4.60937,1.25 2.57812,0 4.71354,-0.98959 2.13541,-1.01562 3.95833,-2.42187 z"
         style="font-family:sans-serif;-inkscape-font-specification:sans-serif;text-align:center;text-anchor:middle"
         id="path10136" />
      <path
         d="m 513.6074,846.20885 -16.97916,39.81769 h -5.23437 l 5.41667,-12.13541 -11.58854,-27.68228 h 5.3125 l 8.93228,21.56249 9.01042,-21.56249 z"
         style="font-family:sans-serif;-inkscape-font-specification:sans-serif;text-align:center;text-anchor:middle"
         id="path10138" />
      <path
         d="m 540.79489,866.91196 q 0,3.98438 -3.30729,6.53646 -3.28125,2.55208 -8.98437,2.55208 -3.22917,0 -5.9375,-0.75521 -2.68229,-0.78125 -4.5052,-1.69271 v -5.49478 h 0.26041 q 2.31771,1.74479 5.15625,2.78645 2.83854,1.01563 5.44271,1.01563 3.22916,0 5.05208,-1.04167 1.82291,-1.04167 1.82291,-3.28125 0,-1.71875 -0.98958,-2.60416 -0.98958,-0.88542 -3.80208,-1.51042 -1.04167,-0.23437 -2.73438,-0.54687 -1.66666,-0.3125 -3.04687,-0.67709 -3.82812,-1.01562 -5.4427,-2.96874 -1.58854,-1.97917 -1.58854,-4.84375 0,-1.79688 0.72916,-3.38542 0.75521,-1.58854 2.26563,-2.83854 1.45833,-1.22395 3.69791,-1.92708 2.26562,-0.72916 5.05208,-0.72916 2.60417,0 5.26041,0.65104 2.68229,0.625 4.45313,1.53645 v 5.23438 h -0.26042 q -1.875,-1.38021 -4.55729,-2.31771 -2.68229,-0.96354 -5.26041,-0.96354 -2.68229,0 -4.53125,1.04166 -1.84896,1.01563 -1.84896,3.04688 0,1.79687 1.11979,2.70833 1.09375,0.91146 3.54167,1.48437 1.35416,0.3125 3.02083,0.625 1.69271,0.3125 2.8125,0.57292 3.41145,0.78125 5.26041,2.68229 1.84896,1.92708 1.84896,5.10416 z"
         style="font-family:sans-serif;-inkscape-font-specification:sans-serif;text-align:center;text-anchor:middle"
         id="path10140" />
    </g>
    <path
       id="path10056"
       style="fill:none;stroke:#00ffff;stroke-width:0.482948;paint-order:fill markers stroke"
       d="M 284.60996,80.174893 A 19.596411,19.596434 0 0 1 307.6721,95.517118 19.596411,19.596434 0 0 1 292.35371,118.59511 19.596411,19.596434 0 0 1 269.25994,103.30052 19.596411,19.596434 0 0 1 284.53067,80.190958" />
    <path
       id="path10058"
       style="fill:none;stroke:#00ffff;stroke-width:0.482948;paint-order:fill markers stroke"
       d="m 329.99362,133.78992 a 19.596411,19.596434 0 0 1 23.06215,15.34223 19.596411,19.596434 0 0 1 -15.3184,23.07799 19.596411,19.596434 0 0 1 -23.09376,-15.29459 19.596411,19.596434 0 0 1 15.27073,-23.10956" />
    <path
       id="path10060"
       style="fill:none;stroke:#000000;stroke-width:0.304254;paint-order:fill markers stroke"
       d="m 286.03524,87.284245 a 12.345612,12.345626 0 0 1 14.529,9.665502 12.345612,12.345626 0 0 1 -9.65049,14.538993 12.345612,12.345626 0 0 1 -14.54892,-9.6355 12.345612,12.345626 0 0 1 9.62046,-14.558874" />
    <path
       id="path10062"
       style="fill:none;stroke:#00ffff;stroke-width:0.482948;paint-order:fill markers stroke"
       d="M 284.60996,80.174893 A 19.596411,19.596434 0 0 1 307.6721,95.517118 19.596411,19.596434 0 0 1 292.35371,118.59511 19.596411,19.596434 0 0 1 269.25994,103.30052 19.596411,19.596434 0 0 1 284.53067,80.190958" />
    <path
       id="path10064"
       style="fill:none;stroke:#00ffff;stroke-width:0.380064;paint-order:fill markers stroke"
       d="m 285.43057,137.59603 a 15.421709,15.421726 0 0 1 18.14913,12.0738 15.421709,15.421726 0 0 1 -12.05506,18.1616 15.421709,15.421726 0 0 1 -18.17401,-12.03632 15.421709,15.421726 0 0 1 12.01755,-18.18644" />
    <path
       id="path10066"
       style="fill:none;stroke:#00ffff;stroke-width:0.380064;paint-order:fill markers stroke"
       d="M 330.81424,84.20347 A 15.421709,15.421726 0 0 1 348.96337,96.277279 15.421709,15.421726 0 0 1 336.90831,114.43888 15.421709,15.421726 0 0 1 318.7343,102.40255 15.421709,15.421726 0 0 1 330.75185,84.216113" />
  </g>
</svg>
